<svg width="103" height="14" viewBox="0 0 103 14" fill="none" xmlns="http://www.w3.org/2000/svg">
    <path d="M69.1678 13.9938C69.247 13.9943 69.3245 13.9714 69.3904 13.9281C69.4562 13.8848 69.5074 13.8231 69.5371 13.7509C69.5794 13.6478 69.6011 13.5376 69.601 13.4265V0.555323C69.6011 0.453419 69.5833 0.352263 69.5482 0.256379C69.5188 0.180985 69.4666 0.116253 69.3987 0.0708836C69.3308 0.0255139 69.2504 0.00168091 69.1683 0.00258847H66.4247C66.3426 0.00168091 66.2622 0.0255139 66.1943 0.0708836C66.1264 0.116253 66.0742 0.180985 66.0448 0.256379C66.0098 0.352263 65.9919 0.453419 65.9921 0.555323V13.4265C65.992 13.5376 66.0135 13.6477 66.0554 13.7509C66.0852 13.823 66.1364 13.8847 66.2022 13.928C66.268 13.9713 66.3455 13.9942 66.4247 13.9938H69.1678Z" fill="url(#paint0_linear_4571_2642)"/>
    <path d="M50.8585 7.00738L50.8617 7.0105L50.8649 7.01361C51.6597 7.77481 52.726 8.19941 53.8354 8.19641H58.7723C58.9604 8.19667 59.1462 8.23623 59.3176 8.31246C59.489 8.38869 59.6419 8.49985 59.7663 8.63859C59.8886 8.77214 59.9802 8.93005 60.0348 9.10157C60.0895 9.27308 60.1059 9.45417 60.0829 9.63248C60.0053 10.2615 59.4002 10.7546 58.7048 10.7546H52.0884C51.6289 10.7546 51.1429 11.0109 50.7541 11.4588C50.3889 11.8797 50.179 12.3863 50.179 12.8492C50.1753 13.0553 50.2204 13.2594 50.3107 13.4454C50.401 13.6314 50.534 13.7942 50.6992 13.921C50.7629 13.9686 50.8408 13.9939 50.9208 13.9931H60.0222C60.3106 13.9933 60.5953 13.9298 60.8553 13.8073C61.294 13.6012 61.7003 13.3343 62.062 13.0148C63.0104 12.188 63.5889 11.0264 63.6718 9.78247C63.7511 8.56391 63.358 7.36105 62.5717 6.41624L62.5532 6.39393L62.5326 6.37368C62.5221 6.36278 62.5068 6.34514 62.4899 6.3249C62.4625 6.29272 62.4292 6.25328 62.3844 6.2102C61.9251 5.71715 61.3667 5.32343 60.7445 5.05405C60.1223 4.78467 59.45 4.64551 58.7702 4.64542H53.8464C53.6645 4.64542 53.4901 4.57433 53.3614 4.4478C53.2328 4.32127 53.1605 4.14966 53.1605 3.97072V3.91882C53.1605 3.73988 53.2328 3.56827 53.3614 3.44174C53.4901 3.31521 53.6645 3.24412 53.8464 3.24412H61.5122C62.3532 3.24412 63.1763 2.00372 63.1763 1.07782C63.1763 0.666775 63.027 0.316969 62.7447 0.066293C62.6964 0.0238394 62.6338 0.000377293 62.569 0.000380738H52.6023C52.3174 -0.00079487 52.0369 0.0693979 51.7871 0.204347C51.1162 0.569871 50.5568 1.10534 50.1672 1.75521C49.7775 2.40507 49.5717 3.14566 49.5711 3.90014V3.96449C49.5653 4.81379 49.825 5.64433 50.3151 6.34358C50.4716 6.58329 50.6538 6.80583 50.8585 7.00738Z" fill="url(#paint1_linear_4571_2642)"/>
    <path d="M35.2731 7.00741L35.2768 7.01053L35.28 7.01364C36.0747 7.77493 37.1411 8.19955 38.2505 8.19644H43.1874C43.3755 8.1967 43.5613 8.23626 43.7327 8.31249C43.9041 8.38872 44.057 8.49989 44.1814 8.63863C44.3036 8.77225 44.3951 8.93017 44.4497 9.10166C44.5044 9.27315 44.5208 9.4542 44.498 9.63251C44.4204 10.2615 43.8153 10.7546 43.1199 10.7546H36.503C36.0434 10.7546 35.557 11.011 35.1687 11.4589C34.803 11.8798 34.5935 12.3863 34.5935 12.8493C34.5899 13.0553 34.635 13.2594 34.7253 13.4454C34.8155 13.6314 34.9486 13.7942 35.1138 13.921C35.1774 13.9686 35.2554 13.994 35.3354 13.9931H44.5133C44.7364 13.9936 44.957 13.9476 45.1607 13.8582C45.642 13.6457 46.087 13.3612 46.4797 13.0148C47.4285 12.1882 48.0072 11.0266 48.09 9.7825C48.1693 8.56387 47.776 7.361 46.9894 6.41627L46.9715 6.39396L46.9509 6.37372C46.9398 6.36282 46.9251 6.34517 46.9076 6.32493C46.8807 6.29275 46.847 6.25383 46.8021 6.21023C46.3429 5.71718 45.7845 5.32347 45.1623 5.05409C44.5401 4.7847 43.8677 4.64555 43.1879 4.64545H38.2637C38.0818 4.64545 37.9073 4.57437 37.7787 4.44784C37.65 4.32131 37.5778 4.14969 37.5778 3.97075V3.91885C37.5778 3.73991 37.65 3.5683 37.7787 3.44177C37.9073 3.31524 38.0818 3.24415 38.2637 3.24415H45.9294C46.7705 3.24415 47.593 2.00375 47.593 1.07785C47.593 0.666807 47.4442 0.317002 47.1614 0.0663252C47.1137 0.0242405 47.0519 0.000954814 46.9878 0.000931694H36.9594C36.7263 -0.00146497 36.4962 0.0519727 36.2888 0.156631C35.5947 0.514481 35.0132 1.05213 34.6072 1.71146C34.2012 2.37078 33.9861 3.12672 33.9852 3.89757V3.96193C33.9794 4.81123 34.2391 5.64177 34.7291 6.34102C34.8857 6.58167 35.0681 6.80509 35.2731 7.00741Z" fill="url(#paint2_linear_4571_2642)"/>
    <path d="M20.3951 13.9938C20.4336 13.9936 20.4713 13.983 20.5041 13.9632C20.537 13.9435 20.5637 13.9153 20.5814 13.8817C20.9597 13.1551 21.8677 11.4102 21.8677 11.4102L24.5665 6.20515L27.2647 11.4097L28.5495 13.8806C28.5689 13.9133 28.5962 13.9407 28.6289 13.9604C28.6617 13.9802 28.6989 13.9916 28.7373 13.9938H32.4222C32.4707 13.9938 32.5178 13.9774 32.5554 13.9474C32.5931 13.9173 32.6191 13.8754 32.629 13.8287C32.654 13.7017 32.6354 13.5701 32.5763 13.4545L31.2403 10.8901L26.0665 0.901501C25.9316 0.639341 25.7278 0.417484 25.4762 0.25896C25.2247 0.100436 24.9346 0.0110215 24.6361 0H24.4974C24.1988 0.0110925 23.9087 0.10053 23.6571 0.259042C23.4055 0.417553 23.2016 0.63937 23.0665 0.901501L17.8916 10.8912L16.5572 13.454C16.4979 13.5697 16.4793 13.7015 16.5045 13.8287C16.5144 13.8754 16.5404 13.9173 16.5781 13.9474C16.6157 13.9774 16.6628 13.9938 16.7113 13.9938H20.3951Z" fill="url(#paint3_linear_4571_2642)"/>
    <path d="M83.5064 3.23492e-07C83.4676 -2.9843e-05 83.4295 0.0104667 83.3964 0.030336C83.3632 0.0502052 83.3363 0.0786783 83.3185 0.112624L82.0327 2.58306L79.334 7.79017L76.6357 2.58565L75.3499 0.112624C75.3322 0.0786783 75.3052 0.0502052 75.2721 0.030336C75.239 0.0104667 75.2009 -2.9843e-05 75.1621 3.23492e-07H71.4788C71.4303 -8.37458e-05 71.3834 0.0162205 71.3457 0.0461769C71.308 0.0761333 71.282 0.11792 71.272 0.164524C71.2467 0.291727 71.2653 0.423567 71.3247 0.53924L72.6591 3.10361L77.8329 13.0917C77.968 13.3539 78.1719 13.5758 78.4235 13.7344C78.6751 13.893 78.9652 13.9826 79.2638 13.9938H79.4026C79.7011 13.9826 79.9912 13.8931 80.2427 13.7345C80.4942 13.5759 80.698 13.354 80.8329 13.0917L86.0078 3.10257L87.3416 0.53924C87.4011 0.423567 87.4196 0.291727 87.3944 0.164524C87.3844 0.11792 87.3583 0.0761333 87.3207 0.0461769C87.283 0.0162205 87.236 -8.37458e-05 87.1876 3.23492e-07H83.5064Z" fill="url(#paint4_linear_4571_2642)"/>
    <path d="M3.19685 13.9938C3.26675 13.9943 3.33531 13.9749 3.39435 13.9381C3.45339 13.9013 3.5004 13.8486 3.52978 13.7862C3.58268 13.6721 3.60986 13.5482 3.60945 13.4229V6.29442L5.08678 7.40352L6.89177 8.77886C7.04861 8.89763 7.24098 8.96203 7.43891 8.96203C7.63684 8.96203 7.82921 8.89763 7.98605 8.77886L9.79103 7.40352L11.2684 6.29442V13.4265C11.268 13.5518 11.295 13.6757 11.3475 13.7898C11.3769 13.8522 11.4239 13.9049 11.4829 13.9418C11.542 13.9786 11.6105 13.9979 11.6804 13.9974H14.4626C14.5325 13.9978 14.6011 13.9784 14.6602 13.9416C14.7193 13.9048 14.7664 13.8521 14.796 13.7898C14.8485 13.6757 14.8755 13.5518 14.8752 13.4265V0.869323C14.8742 0.658002 14.7963 0.454025 14.6554 0.294488C14.5145 0.134952 14.3201 0.0304534 14.1075 0H13.8495C13.6996 0.0219318 13.5579 0.081252 13.4379 0.172308L11.4926 1.64211L7.43785 4.70836L3.38257 1.64211L1.43724 0.172308C1.31707 0.0812513 1.17522 0.0219361 1.02517 0H0.767167C0.5544 0.0299536 0.359733 0.134324 0.218836 0.293984C0.0779399 0.453644 0.00025227 0.6579 9.57506e-06 0.869323V13.4291C-0.000583881 13.5544 0.0264159 13.6783 0.0791524 13.7924C0.108529 13.8548 0.155544 13.9075 0.214581 13.9443C0.273619 13.9812 0.342182 14.0005 0.41208 14L3.19685 13.9938Z" fill="url(#paint5_linear_4571_2642)"/>
    <path d="M91.9704 3.223H101.655C101.892 3.223 102.119 3.13043 102.287 2.96565C102.454 2.80087 102.549 2.57737 102.549 2.34434V0.546007C102.545 0.399303 102.484 0.25974 102.377 0.157547C102.269 0.0553541 102.126 -0.00124131 101.977 2.06604e-05H90.8967C90.4431 -0.000111108 89.9995 0.131311 89.6214 0.377852C89.0296 0.762343 88.5438 1.28503 88.2073 1.89923C87.8709 2.51343 87.6944 3.20003 87.6935 3.8977V10.0987C87.6937 10.7958 87.8701 11.4818 88.2068 12.0952C88.5435 12.7085 89.03 13.2299 89.6225 13.6123C90.0098 13.8622 90.463 13.9948 90.9262 13.9938H102.082C102.175 13.9942 102.266 13.9656 102.342 13.9122C102.417 13.8589 102.474 13.7833 102.504 13.6964C102.533 13.6093 102.547 13.5182 102.547 13.4265V11.6334C102.547 11.4003 102.453 11.1768 102.285 11.0121C102.118 10.8473 101.891 10.7547 101.654 10.7547H91.9704C91.7884 10.7547 91.614 10.6836 91.4854 10.5571C91.3567 10.4306 91.2845 10.259 91.2845 10.08V8.11924H99.2072C99.4441 8.11924 99.6713 8.02666 99.8388 7.86188C100.006 7.6971 100.1 7.47361 100.1 7.24057V5.44691C100.1 5.21388 100.006 4.99038 99.8388 4.8256C99.6713 4.66082 99.4441 4.56825 99.2072 4.56825H91.2845V3.8977C91.2845 3.71876 91.3567 3.54715 91.4854 3.42062C91.614 3.29409 91.7884 3.223 91.9704 3.223Z" fill="url(#paint6_linear_4571_2642)"/>
    <defs>
        <linearGradient id="paint0_linear_4571_2642" x1="67.7965" y1="0.00256348" x2="67.7965" y2="13.9938" gradientUnits="userSpaceOnUse">
            <stop stop-color="#212124"/>
            <stop offset="1" stop-color="#1A1B1E"/>
        </linearGradient>
        <linearGradient id="paint1_linear_4571_2642" x1="56.6264" y1="0.000366211" x2="56.6264" y2="13.9931" gradientUnits="userSpaceOnUse">
            <stop stop-color="#212124"/>
            <stop offset="1" stop-color="#1A1B1E"/>
        </linearGradient>
        <linearGradient id="paint2_linear_4571_2642" x1="41.0426" y1="0.000854492" x2="41.0426" y2="13.9932" gradientUnits="userSpaceOnUse">
            <stop stop-color="#212124"/>
            <stop offset="1" stop-color="#1A1B1E"/>
        </linearGradient>
        <linearGradient id="paint3_linear_4571_2642" x1="24.5667" y1="0" x2="24.5667" y2="13.9938" gradientUnits="userSpaceOnUse">
            <stop stop-color="#212124"/>
            <stop offset="1" stop-color="#1A1B1E"/>
        </linearGradient>
        <linearGradient id="paint4_linear_4571_2642" x1="79.3332" y1="0" x2="79.3332" y2="13.9938" gradientUnits="userSpaceOnUse">
            <stop stop-color="#212124"/>
            <stop offset="1" stop-color="#1A1B1E"/>
        </linearGradient>
        <linearGradient id="paint5_linear_4571_2642" x1="7.43758" y1="0" x2="7.43758" y2="14" gradientUnits="userSpaceOnUse">
            <stop stop-color="#212124"/>
            <stop offset="1" stop-color="#1A1B1E"/>
        </linearGradient>
        <linearGradient id="paint6_linear_4571_2642" x1="95.121" y1="0" x2="95.121" y2="13.9938" gradientUnits="userSpaceOnUse">
            <stop stop-color="#212124"/>
            <stop offset="1" stop-color="#1A1B1E"/>
        </linearGradient>
    </defs>
</svg>