<svg viewBox="0 0 56 34" fill="none">
  <title>Massive Online Marketing Logo</title>
  <path d="M53.0845 31.0845C53.0845 31.6368 52.6368 32.0845 52.0845 32.0845L40.4142 32.0845C39.5233 32.0845 39.0771 31.0073 39.7071 30.3774L51.3774 18.7071C52.0073 18.0771 53.0845 18.5233 53.0845 19.4142L53.0845 31.0845Z" fill="#7857FF"/>
  <path d="M0 21.9073V31C0 31.5523 0.447715 32 1 32H10.5858C10.851 32 11.1054 31.8946 11.2929 31.7071L21 22V31C21 31.5523 21.4477 32 22 32H31.0858C31.351 32 31.6054 31.8946 31.7929 31.7071L52.7071 10.7929C52.8946 10.6054 53 10.351 53 10.0858V1C53 0.447715 52.5523 0 52 0H42.9142C42.649 0 42.3946 0.105356 42.2071 0.292893L32 10.5V1C32 0.447715 31.5523 0 31 0H21.4211C21.1518 0 20.8939 0.108613 20.7057 0.30126L0.284624 21.2086C0.102153 21.3954 0 21.6462 0 21.9073Z" fill="#1F2937"/>
</svg>