<svg width="118" height="21" viewBox="0 0 118 21" fill="none" xmlns="http://www.w3.org/2000/svg">
    <path fill-rule="evenodd" clip-rule="evenodd" d="M32.5206 6.53568C32.6071 6.44912 32.6558 6.33173 32.6558 6.20932L32.6558 0.920179C32.6558 0.410379 32.2425 -0.00289727 31.7327 -0.00289728L26.4435 -0.0028974C26.3211 -0.0028974 26.2037 0.0457285 26.1172 0.132284L19.8646 6.3849L19.8646 0.92017C19.8646 0.410368 19.4513 -0.00290709 18.9415 -0.0029071L13.6524 -0.00290721C13.53 -0.00290722 13.4126 0.0457187 13.326 0.132274L0.789587 12.6687C0.703032 12.7552 0.654408 12.8726 0.654408 12.995L0.654408 18.2842C0.654408 18.794 1.06768 19.2073 1.57748 19.2073L6.86662 19.2073C6.98903 19.2073 7.10642 19.1586 7.19298 19.0721L13.4456 12.8195L13.4456 18.2842C13.4456 18.794 13.8589 19.2073 14.3687 19.2073L19.6578 19.2073C19.7802 19.2073 19.8976 19.1586 19.9842 19.0721L32.5206 6.53568Z" fill="#D1D5DB"/>
    <path d="M32.499 18.7452C32.499 19.0001 32.2924 19.2068 32.0375 19.2068L25.0606 19.2068C24.6494 19.2068 24.4435 18.7096 24.7343 18.4189L31.7111 11.442C32.0019 11.1513 32.499 11.3572 32.499 11.7684L32.499 18.7452Z" fill="#D1D5DB"/>
    <path d="M37.4217 0.899791H38.995L41.102 6.04255H41.1852L43.2922 0.899791H44.8655V7.99707H43.6318V3.12116H43.566L41.6045 7.97628H40.6827L38.7213 3.11076H38.6554V7.99707H37.4217V0.899791ZM47.7419 8.1045C47.4046 8.1045 47.1008 8.04443 46.8305 7.9243C46.5625 7.80185 46.3499 7.62164 46.1928 7.38368C46.038 7.14572 45.9606 6.85231 45.9606 6.50345C45.9606 6.20311 46.0161 5.95475 46.127 5.75838C46.2379 5.562 46.3892 5.4049 46.5809 5.28707C46.7727 5.16925 46.9887 5.0803 47.229 5.02023C47.4716 4.95785 47.7222 4.9128 47.981 4.88508C48.2929 4.85274 48.5459 4.82386 48.7399 4.79844C48.934 4.77072 49.0749 4.72913 49.1627 4.67369C49.2528 4.61593 49.2979 4.52698 49.2979 4.40685V4.38605C49.2979 4.12499 49.2205 3.92283 49.0657 3.7796C48.9109 3.63636 48.6879 3.56474 48.3968 3.56474C48.0896 3.56474 47.8458 3.63174 47.6656 3.76573C47.4877 3.89973 47.3676 4.05799 47.3052 4.2405L46.1339 4.07416C46.2263 3.75072 46.3788 3.48041 46.5913 3.26324C46.8039 3.04376 47.0638 2.87973 47.3711 2.77114C47.6783 2.66025 48.018 2.6048 48.3899 2.6048C48.6464 2.6048 48.9016 2.63484 49.1558 2.6949C49.4099 2.75497 49.6421 2.85432 49.8523 2.99293C50.0626 3.12924 50.2312 3.31522 50.3583 3.55087C50.4877 3.78653 50.5524 4.08109 50.5524 4.43457V7.99707H49.3464V7.26586H49.3048C49.2286 7.41372 49.1211 7.55234 48.9825 7.68171C48.8462 7.80878 48.6741 7.91159 48.4662 7.99014C48.2605 8.06638 48.0191 8.1045 47.7419 8.1045ZM48.0676 7.18269C48.3194 7.18269 48.5378 7.13301 48.7226 7.03367C48.9074 6.93202 49.0495 6.79802 49.1488 6.63168C49.2505 6.46533 49.3013 6.28397 49.3013 6.0876V5.46035C49.2621 5.49269 49.1951 5.52273 49.1003 5.55045C49.0079 5.57817 48.904 5.60243 48.7884 5.62322C48.6729 5.64402 48.5586 5.6625 48.4454 5.67867C48.3322 5.69484 48.234 5.70871 48.1508 5.72026C47.9637 5.74567 47.7962 5.78726 47.6483 5.84501C47.5004 5.90277 47.3838 5.98363 47.2983 6.0876C47.2128 6.18925 47.1701 6.32094 47.1701 6.48266C47.1701 6.71369 47.2544 6.88812 47.423 7.00595C47.5917 7.12377 47.8066 7.18269 48.0676 7.18269ZM56.0209 4.08109L54.8773 4.20585C54.8449 4.09033 54.7883 3.98175 54.7075 3.88009C54.6289 3.77844 54.5226 3.69642 54.3886 3.63405C54.2546 3.57167 54.0906 3.54048 53.8965 3.54048C53.6355 3.54048 53.416 3.59708 53.2381 3.71029C53.0625 3.82349 52.9759 3.9702 52.9782 4.1504C52.9759 4.30519 53.0325 4.4311 53.148 4.52814C53.2658 4.62517 53.4599 4.70488 53.7302 4.76725L54.6381 4.96132C55.1418 5.0699 55.5161 5.24202 55.761 5.47767C56.0082 5.71333 56.1329 6.02175 56.1352 6.40295C56.1329 6.73795 56.0347 7.03367 55.8407 7.29011C55.6489 7.54425 55.3821 7.74294 55.0401 7.88618C54.6982 8.02941 54.3055 8.10103 53.8619 8.10103C53.2104 8.10103 52.6859 7.96473 52.2886 7.69211C51.8912 7.41718 51.6544 7.03483 51.5781 6.54504L52.8015 6.42721C52.8569 6.66749 52.9747 6.84885 53.1549 6.97129C53.3351 7.09374 53.5696 7.15496 53.8584 7.15496C54.1564 7.15496 54.3956 7.09374 54.5758 6.97129C54.7583 6.84885 54.8495 6.69752 54.8495 6.51732C54.8495 6.36483 54.7906 6.23892 54.6728 6.13958C54.5573 6.04024 54.3771 5.964 54.1322 5.91086L53.2242 5.72026C52.7137 5.61398 52.3359 5.43493 52.091 5.18311C51.8461 4.92898 51.7248 4.60784 51.7272 4.21971C51.7248 3.89165 51.8138 3.60748 51.994 3.3672C52.1765 3.12462 52.4295 2.93749 52.7529 2.8058C53.0787 2.6718 53.4541 2.6048 53.8792 2.6048C54.503 2.6048 54.9939 2.73764 55.352 3.00333C55.7124 3.26902 55.9354 3.62827 56.0209 4.08109ZM61.3768 4.08109L60.2331 4.20585C60.2008 4.09033 60.1442 3.98175 60.0633 3.88009C59.9848 3.77844 59.8785 3.69642 59.7445 3.63405C59.6105 3.57167 59.4465 3.54048 59.2524 3.54048C58.9914 3.54048 58.7719 3.59708 58.594 3.71029C58.4184 3.82349 58.3318 3.9702 58.3341 4.1504C58.3318 4.30519 58.3884 4.4311 58.5039 4.52814C58.6217 4.62517 58.8158 4.70488 59.0861 4.76725L59.994 4.96132C60.4977 5.0699 60.8719 5.24202 61.1168 5.47767C61.364 5.71333 61.4888 6.02175 61.4911 6.40295C61.4888 6.73795 61.3906 7.03367 61.1965 7.29011C61.0048 7.54425 60.738 7.74294 60.396 7.88618C60.0541 8.02941 59.6613 8.10103 59.2178 8.10103C58.5663 8.10103 58.0418 7.96473 57.6444 7.69211C57.2471 7.41718 57.0103 7.03483 56.934 6.54504L58.1573 6.42721C58.2128 6.66749 58.3306 6.84885 58.5108 6.97129C58.691 7.09374 58.9255 7.15496 59.2143 7.15496C59.5123 7.15496 59.7514 7.09374 59.9317 6.97129C60.1142 6.84885 60.2054 6.69752 60.2054 6.51732C60.2054 6.36483 60.1465 6.23892 60.0287 6.13958C59.9132 6.04024 59.733 5.964 59.4881 5.91086L58.5801 5.72026C58.0695 5.61398 57.6918 5.43493 57.4469 5.18311C57.202 4.92898 57.0807 4.60784 57.083 4.21971C57.0807 3.89165 57.1697 3.60748 57.3499 3.3672C57.5324 3.12462 57.7854 2.93749 58.1088 2.8058C58.4346 2.6718 58.81 2.6048 59.2351 2.6048C59.8589 2.6048 60.3498 2.73764 60.7079 3.00333C61.0683 3.26902 61.2913 3.62827 61.3768 4.08109ZM62.5256 7.99707V2.67411H63.7801V7.99707H62.5256ZM63.1563 1.91864C62.9576 1.91864 62.7866 1.8528 62.6434 1.72111C62.5001 1.58711 62.4285 1.42654 62.4285 1.23941C62.4285 1.04996 62.5001 0.889395 62.6434 0.757707C62.7866 0.623709 62.9576 0.55671 63.1563 0.55671C63.3573 0.55671 63.5282 0.623709 63.6692 0.757707C63.8124 0.889395 63.884 1.04996 63.884 1.23941C63.884 1.42654 63.8124 1.58711 63.6692 1.72111C63.5282 1.8528 63.3573 1.91864 63.1563 1.91864ZM69.8247 2.67411L67.9291 7.99707H66.5429L64.6473 2.67411H65.985L67.2083 6.62821H67.2637L68.4905 2.67411H69.8247ZM72.8682 8.10103C72.3346 8.10103 71.8737 7.99014 71.4855 7.76835C71.0997 7.54425 70.8028 7.22774 70.5949 6.81881C70.387 6.40758 70.283 5.92357 70.283 5.36678C70.283 4.81924 70.387 4.33869 70.5949 3.92515C70.8051 3.50929 71.0985 3.18585 71.4751 2.95481C71.8517 2.72147 72.2941 2.6048 72.8024 2.6048C73.1305 2.6048 73.44 2.65794 73.7311 2.76421C74.0246 2.86818 74.2833 3.0299 74.5074 3.24938C74.7338 3.46886 74.9117 3.74841 75.0411 4.08802C75.1705 4.42533 75.2352 4.82732 75.2352 5.294V5.67867H70.8721V4.8331H74.0326C74.0303 4.59283 73.9784 4.37912 73.8767 4.19199C73.775 4.00254 73.633 3.85353 73.4504 3.74494C73.2702 3.63636 73.06 3.58206 72.8197 3.58206C72.5633 3.58206 72.338 3.64444 72.144 3.7692C71.9499 3.89165 71.7986 4.05337 71.69 4.25436C71.5837 4.45305 71.5294 4.67138 71.5271 4.90934V5.64748C71.5271 5.95706 71.5837 6.22275 71.6969 6.44454C71.8101 6.66402 71.9684 6.83267 72.1717 6.9505C72.375 7.06601 72.613 7.12377 72.8856 7.12377C73.0681 7.12377 73.2333 7.09836 73.3811 7.04753C73.529 6.99439 73.6572 6.917 73.7658 6.81535C73.8744 6.71369 73.9564 6.58778 74.0118 6.43761L75.1832 6.5693C75.1092 6.87888 74.9683 7.14919 74.7604 7.38022C74.5548 7.60894 74.2914 7.78683 73.9703 7.9139C73.6491 8.03866 73.2818 8.10103 72.8682 8.10103ZM43.4828 14.4484C43.4828 15.1877 43.3511 15.8312 43.0877 16.3787C42.8244 16.9239 42.4617 17.3467 41.9996 17.6471C41.5398 17.9451 41.0108 18.0941 40.4124 18.0941C39.814 18.0941 39.2838 17.9451 38.8218 17.6471C38.362 17.3467 38.0004 16.9239 37.7371 16.3787C37.476 15.8312 37.3455 15.1877 37.3455 14.4484C37.3455 13.7091 37.476 13.0669 37.7371 12.5216C38.0004 11.9741 38.3632 11.5513 38.8252 11.2533C39.2873 10.9529 39.8163 10.8028 40.4124 10.8028C41.0108 10.8028 41.5398 10.9529 41.9996 11.2533C42.4617 11.5513 42.8244 11.9741 43.0877 12.5216C43.3511 13.0669 43.4828 13.7091 43.4828 14.4484ZM42.8521 14.4484C42.8521 13.8131 42.7458 13.269 42.5333 12.8162C42.3207 12.3611 42.0308 12.0134 41.6634 11.7731C41.2961 11.5328 40.8791 11.4127 40.4124 11.4127C39.948 11.4127 39.5322 11.5328 39.1648 11.7731C38.7975 12.0134 38.5064 12.3599 38.2915 12.8127C38.079 13.2656 37.9727 13.8108 37.9727 14.4484C37.9727 15.0838 38.079 15.6278 38.2915 16.0807C38.5041 16.5335 38.794 16.8812 39.1614 17.1238C39.5287 17.364 39.9457 17.4842 40.4124 17.4842C40.8791 17.4842 41.2961 17.364 41.6634 17.1238C42.0331 16.8835 42.3242 16.537 42.5367 16.0841C42.7493 15.629 42.8544 15.0838 42.8521 14.4484ZM45.5387 14.6702V17.9971H44.9218V12.6741H45.5214V13.5093H45.5768C45.7016 13.2367 45.8956 13.0183 46.159 12.8543C46.4247 12.688 46.7528 12.6048 47.1432 12.6048C47.5013 12.6048 47.8155 12.6799 48.0858 12.8301C48.3584 12.9779 48.5698 13.1962 48.72 13.485C48.8725 13.7738 48.9487 14.1285 48.9487 14.5489V17.9971H48.3319V14.587C48.3319 14.1504 48.2094 13.805 47.9645 13.5509C47.7219 13.2967 47.3962 13.1697 46.9873 13.1697C46.7077 13.1697 46.4594 13.2297 46.2422 13.3499C46.025 13.47 45.8529 13.6433 45.7258 13.8697C45.6011 14.0938 45.5387 14.3606 45.5387 14.6702ZM51.19 10.8998V17.9971H50.5732V10.8998H51.19ZM52.8292 17.9971V12.6741H53.4495V17.9971H52.8292ZM53.1445 11.7592C53.0175 11.7592 52.9089 11.7165 52.8188 11.631C52.7287 11.5432 52.6836 11.4381 52.6836 11.3156C52.6836 11.1932 52.7287 11.0892 52.8188 11.0038C52.9089 10.916 53.0175 10.8721 53.1445 10.8721C53.2716 10.8721 53.3802 10.916 53.4703 11.0038C53.5604 11.0892 53.6054 11.1932 53.6054 11.3156C53.6054 11.4381 53.5604 11.5432 53.4703 11.631C53.3802 11.7165 53.2716 11.7592 53.1445 11.7592ZM55.6977 14.6702V17.9971H55.0809V12.6741H55.6804V13.5093H55.7358C55.8606 13.2367 56.0547 13.0183 56.318 12.8543C56.5837 12.688 56.9118 12.6048 57.3022 12.6048C57.6603 12.6048 57.9745 12.6799 58.2448 12.8301C58.5175 12.9779 58.7288 13.1962 58.879 13.485C59.0315 13.7738 59.1077 14.1285 59.1077 14.5489V17.9971H58.4909V14.587C58.4909 14.1504 58.3684 13.805 58.1235 13.5509C57.881 13.2967 57.5552 13.1697 57.1463 13.1697C56.8667 13.1697 56.6184 13.2297 56.4012 13.3499C56.184 13.47 56.0119 13.6433 55.8849 13.8697C55.7601 14.0938 55.6977 14.3606 55.6977 14.6702ZM62.8842 18.108C62.3875 18.108 61.9578 17.9924 61.5951 17.7614C61.2324 17.5281 60.9517 17.2058 60.753 16.7946C60.5566 16.381 60.4584 15.9051 60.4584 15.3668C60.4584 14.8308 60.5566 14.3549 60.753 13.939C60.9517 13.5208 61.2254 13.1939 61.5743 12.9583C61.9255 12.7203 62.3309 12.6013 62.7907 12.6013C63.0795 12.6013 63.3578 12.6545 63.6258 12.7607C63.8938 12.8647 64.1341 13.0253 64.3467 13.2424C64.5615 13.4573 64.7313 13.7288 64.8561 14.0568C64.9808 14.3826 65.0432 14.7684 65.0432 15.2143V15.5193H60.8847V14.9752H64.4125C64.4125 14.6333 64.3432 14.326 64.2046 14.0534C64.0683 13.7784 63.8777 13.5613 63.6328 13.4019C63.3902 13.2424 63.1095 13.1627 62.7907 13.1627C62.4534 13.1627 62.1565 13.2528 61.9 13.433C61.6436 13.6133 61.4426 13.8512 61.297 14.1469C61.1538 14.4427 61.081 14.7661 61.0787 15.1173V15.443C61.0787 15.8658 61.1515 16.2355 61.297 16.552C61.4449 16.8662 61.654 17.1099 61.9243 17.2832C62.1946 17.4565 62.5146 17.5431 62.8842 17.5431C63.1361 17.5431 63.3567 17.5038 63.5461 17.4253C63.7379 17.3467 63.8985 17.2416 64.0278 17.1099C64.1595 16.9759 64.2589 16.8292 64.3259 16.6698L64.9115 16.8604C64.8307 17.0845 64.6978 17.2913 64.513 17.4807C64.3305 17.6702 64.1018 17.8226 63.8268 17.9382C63.5542 18.0514 63.24 18.108 62.8842 18.108ZM69.2754 10.8998H70.024L72.5988 17.0822H72.6612L75.236 10.8998H75.9846V17.9971H75.3746V12.2687H75.3192L72.9246 17.9971H72.3354L69.9408 12.2687H69.8853V17.9971H69.2754V10.8998ZM79.23 18.1184C78.9088 18.1184 78.6154 18.056 78.3498 17.9312C78.0841 17.8042 77.8727 17.6216 77.7156 17.3837C77.5585 17.1434 77.4799 16.8523 77.4799 16.5104C77.4799 16.247 77.5296 16.0252 77.6289 15.845C77.7283 15.6648 77.8692 15.517 78.0517 15.4014C78.2342 15.2859 78.4502 15.1947 78.6998 15.1277C78.9493 15.0607 79.2242 15.0087 79.5245 14.9717C79.8226 14.9348 80.0744 14.9024 80.28 14.8747C80.4879 14.847 80.6462 14.8031 80.7548 14.743C80.8634 14.6829 80.9177 14.5859 80.9177 14.4519V14.3271C80.9177 13.9644 80.8091 13.6791 80.5919 13.4712C80.3771 13.2609 80.0675 13.1558 79.6632 13.1558C79.2797 13.1558 78.9666 13.2401 78.724 13.4088C78.4837 13.5774 78.3151 13.7761 78.2181 14.0049L77.6324 13.7935C77.7525 13.5024 77.9189 13.2702 78.1314 13.0969C78.344 12.9213 78.5819 12.7954 78.8453 12.7192C79.1087 12.6406 79.3755 12.6013 79.6458 12.6013C79.8491 12.6013 80.0605 12.6279 80.28 12.681C80.5018 12.7342 80.7074 12.8266 80.8969 12.9583C81.0863 13.0877 81.24 13.269 81.3578 13.5024C81.4756 13.7334 81.5345 14.0268 81.5345 14.3826V17.9971H80.9177V17.155H80.8795C80.8056 17.3121 80.6959 17.4645 80.5503 17.6124C80.4048 17.7603 80.2223 17.8816 80.0028 17.9763C79.7833 18.071 79.5257 18.1184 79.23 18.1184ZM79.3132 17.5535C79.6412 17.5535 79.9254 17.4807 80.1657 17.3352C80.4059 17.1896 80.5908 16.9967 80.7201 16.7564C80.8518 16.5138 80.9177 16.247 80.9177 15.9559V15.1866C80.8715 15.2305 80.7941 15.2697 80.6855 15.3044C80.5792 15.3391 80.4556 15.3702 80.3147 15.398C80.1761 15.4234 80.0374 15.4453 79.8988 15.4638C79.7602 15.4823 79.6354 15.4985 79.5245 15.5123C79.2242 15.5493 78.9678 15.6071 78.7552 15.6856C78.5427 15.7642 78.3798 15.8727 78.2666 16.0114C78.1534 16.1477 78.0968 16.3232 78.0968 16.5381C78.0968 16.8616 78.2123 17.1122 78.4433 17.2901C78.6744 17.4657 78.9643 17.5535 79.3132 17.5535ZM83.1754 17.9971V12.6741H83.7749V13.492H83.82C83.9263 13.224 84.1111 13.008 84.3745 12.8439C84.6402 12.6776 84.9405 12.5944 85.2755 12.5944C85.3263 12.5944 85.3829 12.5956 85.4453 12.5979C85.5077 12.6002 85.5597 12.6025 85.6012 12.6048V13.2321C85.5735 13.2274 85.525 13.2205 85.4557 13.2113C85.3864 13.202 85.3113 13.1974 85.2304 13.1974C84.9532 13.1974 84.706 13.2563 84.4888 13.3741C84.274 13.4897 84.1042 13.6502 83.9794 13.8558C83.8546 14.0615 83.7923 14.296 83.7923 14.5593V17.9971H83.1754ZM87.2153 15.9871L87.2084 15.1796H87.347L89.8421 12.6741H90.6218L88.1579 15.1415L88.1024 15.1519L87.2153 15.9871ZM86.6539 17.9971V10.8998H87.2707V17.9971H86.6539ZM89.9703 17.9971L87.8079 15.2628L88.2515 14.8366L90.7605 17.9971H89.9703ZM93.7139 18.108C93.2172 18.108 92.7875 17.9924 92.4247 17.7614C92.062 17.5281 91.7813 17.2058 91.5826 16.7946C91.3863 16.381 91.2881 15.9051 91.2881 15.3668C91.2881 14.8308 91.3863 14.3549 91.5826 13.939C91.7813 13.5208 92.0551 13.1939 92.404 12.9583C92.7551 12.7203 93.1606 12.6013 93.6203 12.6013C93.9091 12.6013 94.1875 12.6545 94.4555 12.7607C94.7235 12.8647 94.9638 13.0253 95.1763 13.2424C95.3912 13.4573 95.561 13.7288 95.6858 14.0568C95.8105 14.3826 95.8729 14.7684 95.8729 15.2143V15.5193H91.7143V14.9752H95.2422C95.2422 14.6333 95.1729 14.326 95.0342 14.0534C94.8979 13.7784 94.7073 13.5613 94.4624 13.4019C94.2199 13.2424 93.9392 13.1627 93.6203 13.1627C93.283 13.1627 92.9862 13.2528 92.7297 13.433C92.4733 13.6133 92.2723 13.8512 92.1267 14.1469C91.9835 14.4427 91.9107 14.7661 91.9084 15.1173V15.443C91.9084 15.8658 91.9812 16.2355 92.1267 16.552C92.2746 16.8662 92.4837 17.1099 92.754 17.2832C93.0243 17.4565 93.3443 17.5431 93.7139 17.5431C93.9657 17.5431 94.1864 17.5038 94.3758 17.4253C94.5676 17.3467 94.7281 17.2416 94.8575 17.1099C94.9892 16.9759 95.0885 16.8292 95.1555 16.6698L95.7412 16.8604C95.6603 17.0845 95.5275 17.2913 95.3427 17.4807C95.1602 17.6702 94.9314 17.8226 94.6565 17.9382C94.3839 18.0514 94.0697 18.108 93.7139 18.108ZM99.3288 12.6741V13.2113H96.7886V12.6741H99.3288ZM97.5822 11.3988H98.2026V16.6074C98.2026 16.8292 98.2407 17.0036 98.3169 17.1307C98.3932 17.2555 98.4925 17.3444 98.6149 17.3975C98.7374 17.4484 98.8679 17.4738 99.0065 17.4738C99.0874 17.4738 99.1567 17.4692 99.2145 17.4599C99.2722 17.4484 99.3231 17.4368 99.3669 17.4253L99.4986 17.9832C99.4386 18.0063 99.3646 18.0271 99.2768 18.0456C99.1891 18.0664 99.0805 18.0768 98.9511 18.0768C98.7247 18.0768 98.5064 18.0271 98.2961 17.9278C98.0882 17.8284 97.9172 17.6806 97.7832 17.4842C97.6492 17.2878 97.5822 17.0441 97.5822 16.753V11.3988ZM100.737 17.9971V12.6741H101.357V17.9971H100.737ZM101.052 11.7592C100.925 11.7592 100.816 11.7165 100.726 11.631C100.636 11.5432 100.591 11.4381 100.591 11.3156C100.591 11.1932 100.636 11.0892 100.726 11.0038C100.816 10.916 100.925 10.8721 101.052 10.8721C101.179 10.8721 101.288 10.916 101.378 11.0038C101.468 11.0892 101.513 11.1932 101.513 11.3156C101.513 11.4381 101.468 11.5432 101.378 11.631C101.288 11.7165 101.179 11.7592 101.052 11.7592ZM103.605 14.6702V17.9971H102.988V12.6741H103.588V13.5093H103.643C103.768 13.2367 103.962 13.0183 104.226 12.8543C104.491 12.688 104.819 12.6048 105.21 12.6048C105.568 12.6048 105.882 12.6799 106.152 12.8301C106.425 12.9779 106.636 13.1962 106.787 13.485C106.939 13.7738 107.015 14.1285 107.015 14.5489V17.9971H106.398V14.587C106.398 14.1504 106.276 13.805 106.031 13.5509C105.788 13.2967 105.463 13.1697 105.054 13.1697C104.774 13.1697 104.526 13.2297 104.309 13.3499C104.092 13.47 103.919 13.6433 103.792 13.8697C103.668 14.0938 103.605 14.3606 103.605 14.6702ZM110.67 20.1041C110.308 20.1041 109.99 20.0567 109.717 19.962C109.445 19.8696 109.215 19.7425 109.028 19.5808C108.841 19.4191 108.695 19.2377 108.591 19.0367L109.097 18.704C109.173 18.838 109.275 18.9697 109.402 19.0991C109.531 19.2285 109.699 19.3359 109.905 19.4214C110.112 19.5069 110.368 19.5496 110.67 19.5496C111.142 19.5496 111.522 19.4318 111.811 19.1961C112.102 18.9605 112.247 18.5943 112.247 18.0976V16.8985H112.192C112.12 17.0602 112.017 17.222 111.883 17.3837C111.749 17.5431 111.574 17.6759 111.357 17.7822C111.142 17.8885 110.875 17.9416 110.556 17.9416C110.131 17.9416 109.753 17.8365 109.423 17.6263C109.095 17.416 108.836 17.1157 108.647 16.7252C108.459 16.3325 108.366 15.8647 108.366 15.3217C108.366 14.7834 108.457 14.3098 108.64 13.9009C108.824 13.492 109.082 13.1731 109.412 12.9444C109.743 12.7157 110.128 12.6013 110.566 12.6013C110.892 12.6013 111.163 12.6591 111.377 12.7746C111.592 12.8878 111.764 13.0287 111.894 13.1974C112.025 13.366 112.128 13.5301 112.202 13.6895H112.265V12.6741H112.868V18.1357C112.868 18.5862 112.772 18.957 112.58 19.2481C112.388 19.5392 112.127 19.7541 111.797 19.8927C111.466 20.0336 111.091 20.1041 110.67 20.1041ZM110.629 17.3768C110.971 17.3768 111.263 17.2947 111.506 17.1307C111.748 16.9644 111.934 16.7264 112.064 16.4168C112.193 16.1072 112.258 15.7387 112.258 15.3113C112.258 14.8955 112.194 14.527 112.067 14.2058C111.94 13.8824 111.755 13.6283 111.513 13.4434C111.272 13.2563 110.978 13.1627 110.629 13.1627C110.273 13.1627 109.973 13.2586 109.728 13.4504C109.483 13.6421 109.298 13.9009 109.173 14.2266C109.049 14.5501 108.986 14.9116 108.986 15.3113C108.986 15.7179 109.05 16.0772 109.177 16.3891C109.304 16.6987 109.49 16.9413 109.735 17.1168C109.98 17.2901 110.278 17.3768 110.629 17.3768Z" fill="#9CA3AF"/>
</svg>