<svg width="188" height="68" viewBox="0 0 188 68" fill="none" xmlns="http://www.w3.org/2000/svg">
<g filter="url(#filter0_d_5011_10637)">
<path d="M4.26619 58V40.72H7.74619L14.0102 48.184L20.2502 40.72H23.7542V58H20.5622V45.328L14.0102 53.128L7.43419 45.352V58H4.26619ZM28.0198 58V43.96C28.0198 43.368 28.1638 42.824 28.4518 42.328C28.7398 41.832 29.1318 41.44 29.6278 41.152C30.1238 40.864 30.6678 40.72 31.2598 40.72H42.0598C42.6518 40.72 43.1878 40.864 43.6678 41.152C44.1638 41.44 44.5558 41.832 44.8438 42.328C45.1478 42.824 45.2998 43.368 45.2998 43.96V58H42.3958V52.072H30.8998V58H28.0198ZM30.8998 49.192H42.3958V44.056C42.3958 43.928 42.3478 43.824 42.2518 43.744C42.1718 43.664 42.0758 43.624 41.9638 43.624H31.3318C31.2198 43.624 31.1158 43.664 31.0198 43.744C30.9398 43.824 30.8998 43.928 30.8998 44.056V49.192ZM52.6183 58C52.0263 58 51.4823 57.856 50.9863 57.568C50.5063 57.28 50.1223 56.888 49.8343 56.392C49.5463 55.896 49.4023 55.352 49.4023 54.76V53.608H52.2823V54.664C52.2823 54.792 52.3223 54.896 52.4023 54.976C52.4823 55.056 52.5863 55.096 52.7143 55.096H63.3223C63.4503 55.096 63.5543 55.056 63.6343 54.976C63.7303 54.896 63.7783 54.792 63.7783 54.664V51.232C63.7783 51.12 63.7303 51.024 63.6343 50.944C63.5543 50.848 63.4503 50.8 63.3223 50.8H52.6183C52.0263 50.8 51.4823 50.656 50.9863 50.368C50.5063 50.08 50.1223 49.696 49.8343 49.216C49.5463 48.72 49.4023 48.176 49.4023 47.584V43.96C49.4023 43.368 49.5463 42.824 49.8343 42.328C50.1223 41.832 50.5063 41.44 50.9863 41.152C51.4823 40.864 52.0263 40.72 52.6183 40.72H63.4423C64.0343 40.72 64.5703 40.864 65.0503 41.152C65.5463 41.44 65.9383 41.832 66.2263 42.328C66.5303 42.824 66.6823 43.368 66.6823 43.96V45.112H63.7783V44.056C63.7783 43.928 63.7303 43.824 63.6343 43.744C63.5543 43.664 63.4503 43.624 63.3223 43.624H52.7143C52.5863 43.624 52.4823 43.664 52.4023 43.744C52.3223 43.824 52.2823 43.928 52.2823 44.056V47.488C52.2823 47.6 52.3223 47.704 52.4023 47.8C52.4823 47.88 52.5863 47.92 52.7143 47.92H63.4423C64.0343 47.92 64.5703 48.064 65.0503 48.352C65.5463 48.64 65.9383 49.032 66.2263 49.528C66.5303 50.008 66.6823 50.544 66.6823 51.136V54.76C66.6823 55.352 66.5303 55.896 66.2263 56.392C65.9383 56.888 65.5463 57.28 65.0503 57.568C64.5703 57.856 64.0343 58 63.4423 58H52.6183ZM73.863 58C73.271 58 72.727 57.856 72.231 57.568C71.751 57.28 71.367 56.888 71.079 56.392C70.791 55.896 70.647 55.352 70.647 54.76V53.608H73.527V54.664C73.527 54.792 73.567 54.896 73.647 54.976C73.727 55.056 73.831 55.096 73.959 55.096H84.567C84.695 55.096 84.799 55.056 84.879 54.976C84.975 54.896 85.023 54.792 85.023 54.664V51.232C85.023 51.12 84.975 51.024 84.879 50.944C84.799 50.848 84.695 50.8 84.567 50.8H73.863C73.271 50.8 72.727 50.656 72.231 50.368C71.751 50.08 71.367 49.696 71.079 49.216C70.791 48.72 70.647 48.176 70.647 47.584V43.96C70.647 43.368 70.791 42.824 71.079 42.328C71.367 41.832 71.751 41.44 72.231 41.152C72.727 40.864 73.271 40.72 73.863 40.72H84.687C85.279 40.72 85.815 40.864 86.295 41.152C86.791 41.44 87.183 41.832 87.471 42.328C87.775 42.824 87.927 43.368 87.927 43.96V45.112H85.023V44.056C85.023 43.928 84.975 43.824 84.879 43.744C84.799 43.664 84.695 43.624 84.567 43.624H73.959C73.831 43.624 73.727 43.664 73.647 43.744C73.567 43.824 73.527 43.928 73.527 44.056V47.488C73.527 47.6 73.567 47.704 73.647 47.8C73.727 47.88 73.831 47.92 73.959 47.92H84.687C85.279 47.92 85.815 48.064 86.295 48.352C86.791 48.64 87.183 49.032 87.471 49.528C87.775 50.008 87.927 50.544 87.927 51.136V54.76C87.927 55.352 87.775 55.896 87.471 56.392C87.183 56.888 86.791 57.28 86.295 57.568C85.815 57.856 85.279 58 84.687 58H73.863ZM91.7717 58V40.72H94.6277V58H91.7717ZM108.04 58L98.0325 40.72H101.392L109.384 54.616L117.4 40.72H120.736L110.728 58H108.04ZM124.095 58V40.72H139.959V43.624H126.999V47.92H137.439V50.8H126.999V55.096H139.959V58H124.095Z" fill="#F8F8FF"/>
<path d="M4.26619 58V40.72H7.74619L14.0102 48.184L20.2502 40.72H23.7542V58H20.5622V45.328L14.0102 53.128L7.43419 45.352V58H4.26619ZM28.0198 58V43.96C28.0198 43.368 28.1638 42.824 28.4518 42.328C28.7398 41.832 29.1318 41.44 29.6278 41.152C30.1238 40.864 30.6678 40.72 31.2598 40.72H42.0598C42.6518 40.72 43.1878 40.864 43.6678 41.152C44.1638 41.44 44.5558 41.832 44.8438 42.328C45.1478 42.824 45.2998 43.368 45.2998 43.96V58H42.3958V52.072H30.8998V58H28.0198ZM30.8998 49.192H42.3958V44.056C42.3958 43.928 42.3478 43.824 42.2518 43.744C42.1718 43.664 42.0758 43.624 41.9638 43.624H31.3318C31.2198 43.624 31.1158 43.664 31.0198 43.744C30.9398 43.824 30.8998 43.928 30.8998 44.056V49.192ZM52.6183 58C52.0263 58 51.4823 57.856 50.9863 57.568C50.5063 57.28 50.1223 56.888 49.8343 56.392C49.5463 55.896 49.4023 55.352 49.4023 54.76V53.608H52.2823V54.664C52.2823 54.792 52.3223 54.896 52.4023 54.976C52.4823 55.056 52.5863 55.096 52.7143 55.096H63.3223C63.4503 55.096 63.5543 55.056 63.6343 54.976C63.7303 54.896 63.7783 54.792 63.7783 54.664V51.232C63.7783 51.12 63.7303 51.024 63.6343 50.944C63.5543 50.848 63.4503 50.8 63.3223 50.8H52.6183C52.0263 50.8 51.4823 50.656 50.9863 50.368C50.5063 50.08 50.1223 49.696 49.8343 49.216C49.5463 48.72 49.4023 48.176 49.4023 47.584V43.96C49.4023 43.368 49.5463 42.824 49.8343 42.328C50.1223 41.832 50.5063 41.44 50.9863 41.152C51.4823 40.864 52.0263 40.72 52.6183 40.72H63.4423C64.0343 40.72 64.5703 40.864 65.0503 41.152C65.5463 41.44 65.9383 41.832 66.2263 42.328C66.5303 42.824 66.6823 43.368 66.6823 43.96V45.112H63.7783V44.056C63.7783 43.928 63.7303 43.824 63.6343 43.744C63.5543 43.664 63.4503 43.624 63.3223 43.624H52.7143C52.5863 43.624 52.4823 43.664 52.4023 43.744C52.3223 43.824 52.2823 43.928 52.2823 44.056V47.488C52.2823 47.6 52.3223 47.704 52.4023 47.8C52.4823 47.88 52.5863 47.92 52.7143 47.92H63.4423C64.0343 47.92 64.5703 48.064 65.0503 48.352C65.5463 48.64 65.9383 49.032 66.2263 49.528C66.5303 50.008 66.6823 50.544 66.6823 51.136V54.76C66.6823 55.352 66.5303 55.896 66.2263 56.392C65.9383 56.888 65.5463 57.28 65.0503 57.568C64.5703 57.856 64.0343 58 63.4423 58H52.6183ZM73.863 58C73.271 58 72.727 57.856 72.231 57.568C71.751 57.28 71.367 56.888 71.079 56.392C70.791 55.896 70.647 55.352 70.647 54.76V53.608H73.527V54.664C73.527 54.792 73.567 54.896 73.647 54.976C73.727 55.056 73.831 55.096 73.959 55.096H84.567C84.695 55.096 84.799 55.056 84.879 54.976C84.975 54.896 85.023 54.792 85.023 54.664V51.232C85.023 51.12 84.975 51.024 84.879 50.944C84.799 50.848 84.695 50.8 84.567 50.8H73.863C73.271 50.8 72.727 50.656 72.231 50.368C71.751 50.08 71.367 49.696 71.079 49.216C70.791 48.72 70.647 48.176 70.647 47.584V43.96C70.647 43.368 70.791 42.824 71.079 42.328C71.367 41.832 71.751 41.44 72.231 41.152C72.727 40.864 73.271 40.72 73.863 40.72H84.687C85.279 40.72 85.815 40.864 86.295 41.152C86.791 41.44 87.183 41.832 87.471 42.328C87.775 42.824 87.927 43.368 87.927 43.96V45.112H85.023V44.056C85.023 43.928 84.975 43.824 84.879 43.744C84.799 43.664 84.695 43.624 84.567 43.624H73.959C73.831 43.624 73.727 43.664 73.647 43.744C73.567 43.824 73.527 43.928 73.527 44.056V47.488C73.527 47.6 73.567 47.704 73.647 47.8C73.727 47.88 73.831 47.92 73.959 47.92H84.687C85.279 47.92 85.815 48.064 86.295 48.352C86.791 48.64 87.183 49.032 87.471 49.528C87.775 50.008 87.927 50.544 87.927 51.136V54.76C87.927 55.352 87.775 55.896 87.471 56.392C87.183 56.888 86.791 57.28 86.295 57.568C85.815 57.856 85.279 58 84.687 58H73.863ZM91.7717 58V40.72H94.6277V58H91.7717ZM108.04 58L98.0325 40.72H101.392L109.384 54.616L117.4 40.72H120.736L110.728 58H108.04ZM124.095 58V40.72H139.959V43.624H126.999V47.92H137.439V50.8H126.999V55.096H139.959V58H124.095Z" fill="url(#paint0_linear_5011_10637)" fill-opacity="0.71"/>
</g>
<g filter="url(#filter1_dddi_5011_10637)">
<mask id="path-2-outside-1_5011_10637" maskUnits="userSpaceOnUse" x="136.333" y="25.5312" width="26" height="14" fill="black">
<rect fill="white" x="136.333" y="25.5312" width="26" height="14"/>
<path d="M142.333 31.9062V30.4062H141.583V31.9062H142.333ZM140.083 34.5312L138.583 33.0312V29.2812L140.083 27.7812H145.333V34.5312H140.083ZM149.833 31.9062V30.4062H149.083V31.9062H149.833ZM146.083 37.1562V27.7812H151.333L152.833 29.2812V33.0312L151.333 34.5312H149.083V37.1562H146.083ZM157.333 31.9062V30.4062H156.583V31.9062H157.333ZM153.583 37.1562V27.7812H158.833L160.333 29.2812V33.0312L158.833 34.5312H156.583V37.1562H153.583Z"/>
</mask>
<path d="M142.333 31.9062V30.4062H141.583V31.9062H142.333ZM140.083 34.5312L138.583 33.0312V29.2812L140.083 27.7812H145.333V34.5312H140.083ZM149.833 31.9062V30.4062H149.083V31.9062H149.833ZM146.083 37.1562V27.7812H151.333L152.833 29.2812V33.0312L151.333 34.5312H149.083V37.1562H146.083ZM157.333 31.9062V30.4062H156.583V31.9062H157.333ZM153.583 37.1562V27.7812H158.833L160.333 29.2812V33.0312L158.833 34.5312H156.583V37.1562H153.583Z" fill="#7857FE"/>
<path d="M142.333 31.9062V33.4062H143.833V31.9062H142.333ZM142.333 30.4062H143.833V28.9062H142.333V30.4062ZM141.583 30.4062V28.9062H140.083V30.4062H141.583ZM141.583 31.9062H140.083V33.4062H141.583V31.9062ZM140.083 34.5312L139.022 35.5919L139.462 36.0312H140.083V34.5312ZM138.583 33.0312H137.083V33.6526L137.522 34.0919L138.583 33.0312ZM138.583 29.2812L137.522 28.2206L137.083 28.6599V29.2812H138.583ZM140.083 27.7812V26.2812H139.462L139.022 26.7206L140.083 27.7812ZM145.333 27.7812H146.833V26.2812H145.333V27.7812ZM145.333 34.5312V36.0312H146.833V34.5312H145.333ZM143.833 31.9062V30.4062H140.833V31.9062H143.833ZM142.333 28.9062H141.583V31.9062H142.333V28.9062ZM140.083 30.4062V31.9062H143.083V30.4062H140.083ZM141.583 33.4062H142.333V30.4062H141.583V33.4062ZM141.144 33.4706L139.644 31.9706L137.522 34.0919L139.022 35.5919L141.144 33.4706ZM140.083 33.0312V29.2812H137.083V33.0312H140.083ZM139.644 30.3419L141.144 28.8419L139.022 26.7206L137.522 28.2206L139.644 30.3419ZM140.083 29.2812H145.333V26.2812H140.083V29.2812ZM143.833 27.7812V34.5312H146.833V27.7812H143.833ZM145.333 33.0312H140.083V36.0312H145.333V33.0312ZM149.833 31.9062V33.4062H151.333V31.9062H149.833ZM149.833 30.4062H151.333V28.9062H149.833V30.4062ZM149.083 30.4062V28.9062H147.583V30.4062H149.083ZM149.083 31.9062H147.583V33.4062H149.083V31.9062ZM146.083 37.1562H144.583V38.6562H146.083V37.1562ZM146.083 27.7812V26.2812H144.583V27.7812H146.083ZM151.333 27.7812L152.394 26.7206L151.954 26.2812H151.333V27.7812ZM152.833 29.2812H154.333V28.6599L153.894 28.2206L152.833 29.2812ZM152.833 33.0312L153.894 34.0919L154.333 33.6526V33.0312H152.833ZM151.333 34.5312V36.0312H151.954L152.394 35.5919L151.333 34.5312ZM149.083 34.5312V33.0312H147.583V34.5312H149.083ZM149.083 37.1562V38.6562H150.583V37.1562H149.083ZM151.333 31.9062V30.4062H148.333V31.9062H151.333ZM149.833 28.9062H149.083V31.9062H149.833V28.9062ZM147.583 30.4062V31.9062H150.583V30.4062H147.583ZM149.083 33.4062H149.833V30.4062H149.083V33.4062ZM147.583 37.1562V27.7812H144.583V37.1562H147.583ZM146.083 29.2812H151.333V26.2812H146.083V29.2812ZM150.272 28.8419L151.772 30.3419L153.894 28.2206L152.394 26.7206L150.272 28.8419ZM151.333 29.2812V33.0312H154.333V29.2812H151.333ZM151.772 31.9706L150.272 33.4706L152.394 35.5919L153.894 34.0919L151.772 31.9706ZM151.333 33.0312H149.083V36.0312H151.333V33.0312ZM147.583 34.5312V37.1562H150.583V34.5312H147.583ZM149.083 35.6562H146.083V38.6562H149.083V35.6562ZM157.333 31.9062V33.4062H158.833V31.9062H157.333ZM157.333 30.4062H158.833V28.9062H157.333V30.4062ZM156.583 30.4062V28.9062H155.083V30.4062H156.583ZM156.583 31.9062H155.083V33.4062H156.583V31.9062ZM153.583 37.1562H152.083V38.6562H153.583V37.1562ZM153.583 27.7812V26.2812H152.083V27.7812H153.583ZM158.833 27.7812L159.894 26.7206L159.454 26.2812H158.833V27.7812ZM160.333 29.2812H161.833V28.6599L161.394 28.2206L160.333 29.2812ZM160.333 33.0312L161.394 34.0919L161.833 33.6526V33.0312H160.333ZM158.833 34.5312V36.0312H159.454L159.894 35.5919L158.833 34.5312ZM156.583 34.5312V33.0312H155.083V34.5312H156.583ZM156.583 37.1562V38.6562H158.083V37.1562H156.583ZM158.833 31.9062V30.4062H155.833V31.9062H158.833ZM157.333 28.9062H156.583V31.9062H157.333V28.9062ZM155.083 30.4062V31.9062H158.083V30.4062H155.083ZM156.583 33.4062H157.333V30.4062H156.583V33.4062ZM155.083 37.1562V27.7812H152.083V37.1562H155.083ZM153.583 29.2812H158.833V26.2812H153.583V29.2812ZM157.772 28.8419L159.272 30.3419L161.394 28.2206L159.894 26.7206L157.772 28.8419ZM158.833 29.2812V33.0312H161.833V29.2812H158.833ZM159.272 31.9706L157.772 33.4706L159.894 35.5919L161.394 34.0919L159.272 31.9706ZM158.833 33.0312H156.583V36.0312H158.833V33.0312ZM155.083 34.5312V37.1562H158.083V34.5312H155.083ZM156.583 35.6562H153.583V38.6562H156.583V35.6562Z" fill="#F8F8FF" mask="url(#path-2-outside-1_5011_10637)"/>
</g>
<defs>
<filter id="filter0_d_5011_10637" x="0.266602" y="40.7202" width="143.692" height="25.2798" filterUnits="userSpaceOnUse" color-interpolation-filters="sRGB">
<feFlood flood-opacity="0" result="BackgroundImageFix"/>
<feColorMatrix in="SourceAlpha" type="matrix" values="0 0 0 0 0 0 0 0 0 0 0 0 0 0 0 0 0 0 127 0" result="hardAlpha"/>
<feOffset dy="4"/>
<feGaussianBlur stdDeviation="2"/>
<feComposite in2="hardAlpha" operator="out"/>
<feColorMatrix type="matrix" values="0 0 0 0 0 0 0 0 0 0 0 0 0 0 0 0 0 0 0.35 0"/>
<feBlend mode="normal" in2="BackgroundImageFix" result="effect1_dropShadow_5011_10637"/>
<feBlend mode="normal" in="SourceGraphic" in2="effect1_dropShadow_5011_10637" result="shape"/>
</filter>
<filter id="filter1_dddi_5011_10637" x="111.388" y="0.586573" width="76.1394" height="63.7644" filterUnits="userSpaceOnUse" color-interpolation-filters="sRGB">
<feFlood flood-opacity="0" result="BackgroundImageFix"/>
<feColorMatrix in="SourceAlpha" type="matrix" values="0 0 0 0 0 0 0 0 0 0 0 0 0 0 0 0 0 0 127 0" result="hardAlpha"/>
<feOffset/>
<feGaussianBlur stdDeviation="1.69967"/>
<feComposite in2="hardAlpha" operator="out"/>
<feColorMatrix type="matrix" values="0 0 0 0 0.470588 0 0 0 0 0.341176 0 0 0 0 0.996078 0 0 0 0.15 0"/>
<feBlend mode="normal" in2="BackgroundImageFix" result="effect1_dropShadow_5011_10637"/>
<feColorMatrix in="SourceAlpha" type="matrix" values="0 0 0 0 0 0 0 0 0 0 0 0 0 0 0 0 0 0 127 0" result="hardAlpha"/>
<feOffset/>
<feGaussianBlur stdDeviation="5.099"/>
<feComposite in2="hardAlpha" operator="out"/>
<feColorMatrix type="matrix" values="0 0 0 0 0.470588 0 0 0 0 0.341176 0 0 0 0 0.996078 0 0 0 0.25 0"/>
<feBlend mode="normal" in2="effect1_dropShadow_5011_10637" result="effect2_dropShadow_5011_10637"/>
<feColorMatrix in="SourceAlpha" type="matrix" values="0 0 0 0 0 0 0 0 0 0 0 0 0 0 0 0 0 0 127 0" result="hardAlpha"/>
<feOffset/>
<feGaussianBlur stdDeviation="13.5973"/>
<feComposite in2="hardAlpha" operator="out"/>
<feColorMatrix type="matrix" values="0 0 0 0 0.470588 0 0 0 0 0.341176 0 0 0 0 0.996078 0 0 0 0.35 0"/>
<feBlend mode="normal" in2="effect2_dropShadow_5011_10637" result="effect3_dropShadow_5011_10637"/>
<feBlend mode="normal" in="SourceGraphic" in2="effect3_dropShadow_5011_10637" result="shape"/>
<feColorMatrix in="SourceAlpha" type="matrix" values="0 0 0 0 0 0 0 0 0 0 0 0 0 0 0 0 0 0 127 0" result="hardAlpha"/>
<feOffset dx="0.849834"/>
<feGaussianBlur stdDeviation="0.849834"/>
<feComposite in2="hardAlpha" operator="arithmetic" k2="-1" k3="1"/>
<feColorMatrix type="matrix" values="0 0 0 0 1 0 0 0 0 1 0 0 0 0 1 0 0 0 0.45 0"/>
<feBlend mode="normal" in2="shape" result="effect4_innerShadow_5011_10637"/>
</filter>
<linearGradient id="paint0_linear_5011_10637" x1="145.775" y1="31.3198" x2="138.888" y2="63.0693" gradientUnits="userSpaceOnUse">
<stop stop-color="#7857FE"/>
<stop offset="1" stop-color="#7857FE" stop-opacity="0"/>
</linearGradient>
</defs>
</svg>
