<svg viewBox="0 0 32 20" fill="none" xmlns="http://www.w3.org/2000/svg">
    <path d="M12.7071 0.292893L0.292893 12.7071C0.105357 12.8946 0 13.149 0 13.4142V18.5C0 19.0523 0.447715 19.5 1 19.5H6.08579C6.351 19.5 6.60536 19.3946 6.79289 19.2071L13 13V18.5C13 19.0523 13.4477 19.5 14 19.5H18.5858C18.851 19.5 19.1054 19.3946 19.2929 19.2071L31.7071 6.79289C31.8946 6.60536 32 6.351 32 6.08579V1C32 0.447715 31.5523 0 31 0H25.9142C25.649 0 25.3946 0.105357 25.2071 0.292893L19 6.5V1C19 0.447715 18.5523 0 18 0H13.4142C13.149 0 12.8946 0.105357 12.7071 0.292893Z" fill="#6B7280"/>
    <path d="M31.9253 18.1549C31.9253 18.7072 31.4776 19.1549 30.9253 19.1549L25.4006 19.1549C24.5097 19.1549 24.0635 18.0778 24.6934 17.4478L30.2182 11.9231C30.8482 11.2931 31.9253 11.7393 31.9253 12.6302L31.9253 18.1549Z" fill="#7857FF"/>
</svg>